<svg xmlns="http://www.w3.org/2000/svg" xmlns:xlink="http://www.w3.org/1999/xlink" width="500" zoomAndPan="magnify" viewBox="0 0 375 374.999991" height="500" preserveAspectRatio="xMidYMid meet" version="1.2"><defs><clipPath id="14dff6133e"><path d="M 231.613281 129.261719 L 260 129.261719 L 260 178 L 231.613281 178 Z M 231.613281 129.261719 "/></clipPath><clipPath id="86ff764d09"><path d="M 251 163 L 282.402344 163 L 282.402344 183 L 251 183 Z M 251 163 "/></clipPath><clipPath id="f6eece533a"><path d="M 246 190 L 255 190 L 255 206.511719 L 246 206.511719 Z M 246 190 "/></clipPath></defs><g id="683169a2a5"><rect x="0" width="375" y="0" height="374.999991" style="fill:#ffffff;fill-opacity:1;stroke:none;"/><rect x="0" width="375" y="0" height="374.999991" style="fill:#ffffff;fill-opacity:1;stroke:none;"/><g style="fill:#ffffff;fill-opacity:1;"><g transform="translate(125.175687, 184.130804)"><path style="stroke:none" d="M 26.65625 -11.390625 C 26.65625 -8.953125 26.085938 -6.847656 24.953125 -5.078125 C 23.828125 -3.316406 22.304688 -1.960938 20.390625 -1.015625 C 18.484375 -0.078125 16.335938 0.390625 13.953125 0.390625 C 11.234375 0.390625 8.804688 -0.144531 6.671875 -1.21875 C 4.546875 -2.289062 2.890625 -3.972656 1.703125 -6.265625 L 7.703125 -9.828125 C 9.003906 -7.390625 11.144531 -6.171875 14.125 -6.171875 C 15.664062 -6.171875 16.957031 -6.613281 18 -7.5 C 19.039062 -8.382812 19.5625 -9.625 19.5625 -11.21875 C 19.5625 -12.664062 19.0625 -13.835938 18.0625 -14.734375 C 17.0625 -15.640625 15.664062 -16.09375 13.875 -16.09375 C 13.113281 -16.09375 12.3125 -15.925781 11.46875 -15.59375 C 10.632812 -15.257812 9.882812 -14.757812 9.21875 -14.09375 L 2.609375 -16.78125 L 5.09375 -34.046875 L 25.140625 -34.046875 L 25.140625 -27.65625 L 10.703125 -27.65625 L 9.609375 -20 C 10.535156 -20.757812 11.5 -21.328125 12.5 -21.703125 C 13.5 -22.078125 14.578125 -22.265625 15.734375 -22.265625 C 17.734375 -22.265625 19.5625 -21.859375 21.21875 -21.046875 C 22.875 -20.234375 24.191406 -19.019531 25.171875 -17.40625 C 26.160156 -15.800781 26.65625 -13.796875 26.65625 -11.390625 Z M 26.65625 -11.390625 "/></g></g><g style="fill:#ffffff;fill-opacity:1;"><g transform="translate(149.824714, 184.130804)"><path style="stroke:none" d="M 20.609375 -7 C 20.609375 -4.820312 19.796875 -3.023438 18.171875 -1.609375 C 16.546875 -0.191406 14.269531 0.515625 11.34375 0.515625 C 8.625 0.515625 6.46875 0.0234375 4.875 -0.953125 C 3.28125 -1.941406 2.0625 -3.234375 1.21875 -4.828125 L 6.21875 -7.78125 C 6.625 -6.96875 7.273438 -6.289062 8.171875 -5.75 C 9.066406 -5.21875 10.15625 -4.953125 11.4375 -4.953125 C 12.300781 -4.953125 12.988281 -5.125 13.5 -5.46875 C 14.007812 -5.820312 14.265625 -6.21875 14.265625 -6.65625 C 14.265625 -7.0625 14.050781 -7.453125 13.625 -7.828125 C 13.207031 -8.203125 12.1875 -8.566406 10.5625 -8.921875 C 9.144531 -9.234375 7.804688 -9.6875 6.546875 -10.28125 C 5.285156 -10.875 4.257812 -11.660156 3.46875 -12.640625 C 2.6875 -13.628906 2.296875 -14.894531 2.296875 -16.4375 C 2.296875 -17.914062 2.71875 -19.203125 3.5625 -20.296875 C 4.40625 -21.398438 5.5 -22.253906 6.84375 -22.859375 C 8.195312 -23.472656 9.65625 -23.78125 11.21875 -23.78125 C 13.445312 -23.78125 15.316406 -23.335938 16.828125 -22.453125 C 18.335938 -21.578125 19.453125 -20.457031 20.171875 -19.09375 L 15.265625 -16.171875 C 14.890625 -16.835938 14.359375 -17.375 13.671875 -17.78125 C 12.992188 -18.1875 12.117188 -18.390625 11.046875 -18.390625 C 10.316406 -18.390625 9.726562 -18.222656 9.28125 -17.890625 C 8.832031 -17.554688 8.609375 -17.160156 8.609375 -16.703125 C 8.609375 -16.234375 8.828125 -15.816406 9.265625 -15.453125 C 9.703125 -15.097656 10.5 -14.800781 11.65625 -14.5625 C 14.4375 -13.988281 16.625 -13.113281 18.21875 -11.9375 C 19.8125 -10.757812 20.609375 -9.113281 20.609375 -7 Z M 20.609375 -7 "/></g></g><g style="fill:#ffffff;fill-opacity:1;"><g transform="translate(168.083078, 184.130804)"><path style="stroke:none" d="M 9.65625 0.4375 C 8.257812 0.4375 6.96875 0.160156 5.78125 -0.390625 C 4.59375 -0.941406 3.632812 -1.738281 2.90625 -2.78125 C 2.1875 -3.820312 1.828125 -5.054688 1.828125 -6.484375 L 1.828125 -6.5625 C 1.828125 -8.007812 2.140625 -9.191406 2.765625 -10.109375 C 3.390625 -11.023438 4.210938 -11.75 5.234375 -12.28125 C 6.265625 -12.820312 7.390625 -13.191406 8.609375 -13.390625 C 9.828125 -13.597656 11.015625 -13.703125 12.171875 -13.703125 L 14.484375 -13.703125 C 15.117188 -13.703125 15.582031 -13.867188 15.875 -14.203125 C 16.164062 -14.535156 16.3125 -14.929688 16.3125 -15.390625 C 16.3125 -16.148438 16.003906 -16.816406 15.390625 -17.390625 C 14.785156 -17.972656 13.84375 -18.265625 12.5625 -18.265625 C 11.34375 -18.265625 10.320312 -17.992188 9.5 -17.453125 C 8.675781 -16.921875 7.972656 -16.144531 7.390625 -15.125 L 2.21875 -18.21875 C 3.144531 -19.925781 4.492188 -21.273438 6.265625 -22.265625 C 8.035156 -23.253906 10.238281 -23.75 12.875 -23.75 C 14.84375 -23.75 16.585938 -23.40625 18.109375 -22.71875 C 19.628906 -22.039062 20.816406 -21.003906 21.671875 -19.609375 C 22.523438 -18.222656 22.953125 -16.484375 22.953125 -14.390625 L 22.953125 0 L 16.703125 0 L 16.703125 -2.875 L 16.609375 -2.90625 C 15.742188 -1.664062 14.6875 -0.796875 13.4375 -0.296875 C 12.1875 0.191406 10.925781 0.4375 9.65625 0.4375 Z M 11.609375 -4.515625 C 13.117188 -4.515625 14.269531 -4.957031 15.0625 -5.84375 C 15.863281 -6.726562 16.265625 -7.78125 16.265625 -9 L 16.265625 -9.515625 L 12.171875 -9.515625 C 11.273438 -9.515625 10.460938 -9.304688 9.734375 -8.890625 C 9.015625 -8.472656 8.65625 -7.800781 8.65625 -6.875 C 8.65625 -6.0625 8.941406 -5.460938 9.515625 -5.078125 C 10.097656 -4.703125 10.796875 -4.515625 11.609375 -4.515625 Z M 11.609375 -4.515625 "/></g></g><g style="fill:#ffffff;fill-opacity:1;"><g transform="translate(189.949777, 184.130804)"><path style="stroke:none" d="M 18.265625 -29.484375 C 17.910156 -29.597656 17.5 -29.671875 17.03125 -29.703125 C 16.570312 -29.734375 16.285156 -29.75 16.171875 -29.75 C 14.898438 -29.75 13.894531 -29.40625 13.15625 -28.71875 C 12.414062 -28.039062 12.046875 -27.019531 12.046875 -25.65625 L 12.046875 -23.21875 L 18.140625 -23.21875 L 18.140625 -17.4375 L 12.09375 -17.4375 L 12.09375 0 L 5.3125 0 L 5.3125 -17.4375 L 1.125 -17.4375 L 1.125 -23.21875 L 5.3125 -23.21875 L 5.3125 -25.53125 C 5.3125 -27.4375 5.648438 -29.144531 6.328125 -30.65625 C 7.003906 -32.164062 8.066406 -33.351562 9.515625 -34.21875 C 10.972656 -35.09375 12.832031 -35.53125 15.09375 -35.53125 C 15.46875 -35.53125 15.921875 -35.503906 16.453125 -35.453125 C 16.992188 -35.410156 17.597656 -35.273438 18.265625 -35.046875 Z M 18.265625 -29.484375 "/></g></g><g style="fill:#ffffff;fill-opacity:1;"><g transform="translate(204.817173, 184.130804)"><path style="stroke:none" d="M 10.34375 -2.484375 L 0.5625 -23.21875 L 8.046875 -23.21875 L 13.828125 -9.953125 L 19 -23.21875 L 26 -23.21875 L 11.921875 11.4375 L 4.65625 11.4375 Z M 10.34375 -2.484375 "/></g></g><g style="fill:#ffffff;fill-opacity:1;"><g transform="translate(115.068677, 205.0294)"><path style="stroke:none" d="M 5.484375 -1.6875 C 5.484375 -1.375 5.421875 -1.109375 5.296875 -0.890625 C 5.171875 -0.679688 5.003906 -0.507812 4.796875 -0.375 C 4.585938 -0.25 4.351562 -0.15625 4.09375 -0.09375 C 3.832031 -0.03125 3.566406 0 3.296875 0 L 0.71875 0 L 0.71875 -6.140625 L 3.265625 -6.140625 C 3.585938 -6.140625 3.898438 -6.078125 4.203125 -5.953125 C 4.503906 -5.835938 4.75 -5.660156 4.9375 -5.421875 C 5.125 -5.179688 5.21875 -4.878906 5.21875 -4.515625 C 5.21875 -4.210938 5.140625 -3.953125 4.984375 -3.734375 C 4.835938 -3.515625 4.628906 -3.335938 4.359375 -3.203125 L 4.359375 -3.1875 C 4.722656 -3.050781 5 -2.867188 5.1875 -2.640625 C 5.382812 -2.421875 5.484375 -2.101562 5.484375 -1.6875 Z M 3.984375 -4.328125 C 3.984375 -4.492188 3.9375 -4.625 3.84375 -4.71875 C 3.75 -4.8125 3.632812 -4.875 3.5 -4.90625 C 3.363281 -4.945312 3.226562 -4.96875 3.09375 -4.96875 L 1.953125 -4.96875 L 1.953125 -3.640625 L 3 -3.640625 C 3.15625 -3.640625 3.304688 -3.65625 3.453125 -3.6875 C 3.597656 -3.726562 3.722656 -3.796875 3.828125 -3.890625 C 3.929688 -3.992188 3.984375 -4.140625 3.984375 -4.328125 Z M 4.25 -1.859375 C 4.25 -2.054688 4.195312 -2.203125 4.09375 -2.296875 C 4 -2.390625 3.875 -2.453125 3.71875 -2.484375 C 3.5625 -2.523438 3.40625 -2.546875 3.25 -2.546875 L 1.953125 -2.546875 L 1.953125 -1.171875 L 3.28125 -1.171875 C 3.4375 -1.171875 3.585938 -1.1875 3.734375 -1.21875 C 3.890625 -1.257812 4.015625 -1.328125 4.109375 -1.421875 C 4.203125 -1.523438 4.25 -1.671875 4.25 -1.859375 Z M 4.25 -1.859375 "/></g></g><g style="fill:#ffffff;fill-opacity:1;"><g transform="translate(122.2113, 205.0294)"><path style="stroke:none" d="M 5.578125 -2.484375 C 5.578125 -1.953125 5.484375 -1.492188 5.296875 -1.109375 C 5.117188 -0.734375 4.847656 -0.4375 4.484375 -0.21875 C 4.117188 -0.0078125 3.660156 0.09375 3.109375 0.09375 C 2.546875 0.09375 2.082031 -0.015625 1.71875 -0.234375 C 1.351562 -0.453125 1.082031 -0.75 0.90625 -1.125 C 0.738281 -1.5 0.65625 -1.9375 0.65625 -2.4375 L 0.65625 -6.140625 L 1.921875 -6.140625 L 1.921875 -2.46875 C 1.921875 -2.007812 2.035156 -1.671875 2.265625 -1.453125 C 2.492188 -1.242188 2.773438 -1.140625 3.109375 -1.140625 C 3.503906 -1.140625 3.804688 -1.253906 4.015625 -1.484375 C 4.222656 -1.722656 4.328125 -2.039062 4.328125 -2.4375 L 4.328125 -6.140625 L 5.578125 -6.140625 Z M 5.578125 -2.484375 "/></g></g><g style="fill:#ffffff;fill-opacity:1;"><g transform="translate(129.754222, 205.0294)"><path style="stroke:none" d="M 1.984375 -6.140625 L 1.984375 0 L 0.71875 0 L 0.71875 -6.140625 Z M 1.984375 -6.140625 "/></g></g><g style="fill:#ffffff;fill-opacity:1;"><g transform="translate(133.76507, 205.0294)"><path style="stroke:none" d="M 0.71875 -6.140625 L 1.984375 -6.140625 L 1.984375 -1.203125 L 4.609375 -1.203125 L 4.609375 0 L 0.71875 0 Z M 0.71875 -6.140625 "/></g></g><g style="fill:#ffffff;fill-opacity:1;"><g transform="translate(139.80882, 205.0294)"><path style="stroke:none" d="M 6.0625 -3.078125 C 6.0625 -2.472656 5.921875 -1.9375 5.640625 -1.46875 C 5.359375 -1.007812 4.957031 -0.648438 4.4375 -0.390625 C 3.914062 -0.128906 3.296875 0 2.578125 0 L 0.71875 0 L 0.71875 -6.140625 L 2.59375 -6.140625 C 3.3125 -6.140625 3.925781 -6.019531 4.4375 -5.78125 C 4.957031 -5.539062 5.359375 -5.191406 5.640625 -4.734375 C 5.921875 -4.273438 6.0625 -3.722656 6.0625 -3.078125 Z M 4.765625 -3.078125 C 4.765625 -3.484375 4.671875 -3.820312 4.484375 -4.09375 C 4.296875 -4.375 4.039062 -4.582031 3.71875 -4.71875 C 3.394531 -4.863281 3.03125 -4.9375 2.625 -4.9375 L 1.984375 -4.9375 L 1.984375 -1.203125 L 2.609375 -1.203125 C 3.035156 -1.203125 3.410156 -1.273438 3.734375 -1.421875 C 4.054688 -1.566406 4.304688 -1.78125 4.484375 -2.0625 C 4.671875 -2.34375 4.765625 -2.679688 4.765625 -3.078125 Z M 4.765625 -3.078125 "/></g></g><g style="fill:#ffffff;fill-opacity:1;"><g transform="translate(147.532269, 205.0294)"><path style="stroke:none" d=""/></g></g><g style="fill:#ffffff;fill-opacity:1;"><g transform="translate(150.805308, 205.0294)"><path style="stroke:none" d="M 2.359375 0 L 2.359375 -2.4375 L 0.109375 -6.140625 L 1.578125 -6.140625 L 3 -3.6875 L 4.4375 -6.140625 L 5.875 -6.140625 L 3.625 -2.484375 L 3.625 0 Z M 2.359375 0 "/></g></g><g style="fill:#ffffff;fill-opacity:1;"><g transform="translate(158.09706, 205.0294)"><path style="stroke:none" d="M 0.34375 -3.0625 C 0.34375 -3.5 0.425781 -3.910156 0.59375 -4.296875 C 0.757812 -4.679688 0.988281 -5.019531 1.28125 -5.3125 C 1.570312 -5.601562 1.910156 -5.828125 2.296875 -5.984375 C 2.691406 -6.148438 3.109375 -6.234375 3.546875 -6.234375 C 3.984375 -6.234375 4.394531 -6.148438 4.78125 -5.984375 C 5.164062 -5.828125 5.503906 -5.609375 5.796875 -5.328125 C 6.085938 -5.046875 6.3125 -4.710938 6.46875 -4.328125 C 6.632812 -3.941406 6.71875 -3.53125 6.71875 -3.09375 C 6.71875 -2.65625 6.632812 -2.238281 6.46875 -1.84375 C 6.300781 -1.457031 6.066406 -1.117188 5.765625 -0.828125 C 5.472656 -0.535156 5.132812 -0.304688 4.75 -0.140625 C 4.363281 0.015625 3.953125 0.09375 3.515625 0.09375 C 3.078125 0.09375 2.664062 0.015625 2.28125 -0.140625 C 1.894531 -0.304688 1.554688 -0.53125 1.265625 -0.8125 C 0.972656 -1.101562 0.742188 -1.441406 0.578125 -1.828125 C 0.421875 -2.210938 0.34375 -2.625 0.34375 -3.0625 Z M 1.640625 -3.078125 C 1.640625 -2.722656 1.722656 -2.394531 1.890625 -2.09375 C 2.054688 -1.800781 2.28125 -1.566406 2.5625 -1.390625 C 2.851562 -1.222656 3.175781 -1.140625 3.53125 -1.140625 C 3.882812 -1.140625 4.203125 -1.222656 4.484375 -1.390625 C 4.773438 -1.566406 5.003906 -1.800781 5.171875 -2.09375 C 5.335938 -2.394531 5.421875 -2.722656 5.421875 -3.078125 C 5.421875 -3.429688 5.335938 -3.753906 5.171875 -4.046875 C 5.003906 -4.335938 4.773438 -4.566406 4.484375 -4.734375 C 4.203125 -4.910156 3.882812 -5 3.53125 -5 C 3.175781 -5 2.851562 -4.910156 2.5625 -4.734375 C 2.28125 -4.566406 2.054688 -4.335938 1.890625 -4.046875 C 1.722656 -3.753906 1.640625 -3.429688 1.640625 -3.078125 Z M 1.640625 -3.078125 "/></g></g><g style="fill:#ffffff;fill-opacity:1;"><g transform="translate(166.456278, 205.0294)"><path style="stroke:none" d="M 5.578125 -2.484375 C 5.578125 -1.953125 5.484375 -1.492188 5.296875 -1.109375 C 5.117188 -0.734375 4.847656 -0.4375 4.484375 -0.21875 C 4.117188 -0.0078125 3.660156 0.09375 3.109375 0.09375 C 2.546875 0.09375 2.082031 -0.015625 1.71875 -0.234375 C 1.351562 -0.453125 1.082031 -0.75 0.90625 -1.125 C 0.738281 -1.5 0.65625 -1.9375 0.65625 -2.4375 L 0.65625 -6.140625 L 1.921875 -6.140625 L 1.921875 -2.46875 C 1.921875 -2.007812 2.035156 -1.671875 2.265625 -1.453125 C 2.492188 -1.242188 2.773438 -1.140625 3.109375 -1.140625 C 3.503906 -1.140625 3.804688 -1.253906 4.015625 -1.484375 C 4.222656 -1.722656 4.328125 -2.039062 4.328125 -2.4375 L 4.328125 -6.140625 L 5.578125 -6.140625 Z M 5.578125 -2.484375 "/></g></g><g style="fill:#ffffff;fill-opacity:1;"><g transform="translate(173.9992, 205.0294)"><path style="stroke:none" d="M 5.4375 0 L 4.03125 0 L 2.75 -2.203125 L 1.984375 -2.203125 L 1.984375 0 L 0.71875 0 L 0.71875 -6.140625 L 3.140625 -6.140625 C 3.535156 -6.140625 3.894531 -6.066406 4.21875 -5.921875 C 4.550781 -5.773438 4.816406 -5.554688 5.015625 -5.265625 C 5.210938 -4.984375 5.3125 -4.628906 5.3125 -4.203125 C 5.3125 -3.304688 4.890625 -2.707031 4.046875 -2.40625 Z M 3.046875 -3.375 C 3.203125 -3.375 3.351562 -3.398438 3.5 -3.453125 C 3.65625 -3.503906 3.78125 -3.585938 3.875 -3.703125 C 3.976562 -3.816406 4.03125 -3.972656 4.03125 -4.171875 C 4.03125 -4.367188 3.976562 -4.519531 3.875 -4.625 C 3.769531 -4.738281 3.644531 -4.816406 3.5 -4.859375 C 3.351562 -4.910156 3.195312 -4.9375 3.03125 -4.9375 L 1.984375 -4.9375 L 1.984375 -3.375 Z M 3.046875 -3.375 "/></g></g><g style="fill:#ffffff;fill-opacity:1;"><g transform="translate(181.039783, 205.0294)"><path style="stroke:none" d=""/></g></g><g style="fill:#ffffff;fill-opacity:1;"><g transform="translate(184.319699, 205.0294)"><path style="stroke:none" d="M 3.3125 0 L 1.953125 0 L 0.15625 -6.140625 L 1.5 -6.140625 L 2.671875 -1.78125 L 4 -6.140625 L 5.359375 -6.140625 L 6.6875 -1.75 L 7.890625 -6.140625 L 9.203125 -6.140625 L 7.375 0 L 6.015625 0 L 4.671875 -4.453125 L 4.65625 -4.453125 Z M 3.3125 0 "/></g></g><g style="fill:#ffffff;fill-opacity:1;"><g transform="translate(194.970841, 205.0294)"><path style="stroke:none" d="M 0.71875 -6.140625 L 4.734375 -6.140625 L 4.734375 -4.953125 L 1.96875 -4.953125 L 1.96875 -3.703125 L 4.453125 -3.703125 L 4.453125 -2.515625 L 1.96875 -2.515625 L 1.96875 -1.1875 L 4.75 -1.1875 L 4.75 0 L 0.71875 0 Z M 0.71875 -6.140625 "/></g></g><g style="fill:#ffffff;fill-opacity:1;"><g transform="translate(201.477686, 205.0294)"><path style="stroke:none" d="M 1.265625 0 L -0.015625 0 L 2.34375 -6.140625 L 3.859375 -6.140625 L 6.21875 0 L 4.90625 0 L 4.453125 -1.234375 L 1.71875 -1.234375 Z M 3.09375 -4.90625 L 2.171875 -2.421875 L 4.015625 -2.421875 Z M 3.09375 -4.90625 "/></g></g><g style="fill:#ffffff;fill-opacity:1;"><g transform="translate(208.997064, 205.0294)"><path style="stroke:none" d="M 0.71875 -6.140625 L 1.984375 -6.140625 L 1.984375 -1.203125 L 4.609375 -1.203125 L 4.609375 0 L 0.71875 0 Z M 0.71875 -6.140625 "/></g></g><g style="fill:#ffffff;fill-opacity:1;"><g transform="translate(215.040813, 205.0294)"><path style="stroke:none" d="M 2.015625 0 L 2.015625 -4.90625 L 0.171875 -4.90625 L 0.171875 -6.140625 L 5.109375 -6.140625 L 5.109375 -4.90625 L 3.265625 -4.90625 L 3.265625 0 Z M 2.015625 0 "/></g></g><g style="fill:#ffffff;fill-opacity:1;"><g transform="translate(221.626145, 205.0294)"><path style="stroke:none" d="M 1.984375 -2.484375 L 1.984375 0 L 0.71875 0 L 0.71875 -6.140625 L 1.984375 -6.140625 L 1.984375 -3.71875 L 4.5625 -3.71875 L 4.5625 -6.140625 L 5.828125 -6.140625 L 5.828125 0 L 4.5625 0 L 4.5625 -2.484375 Z M 1.984375 -2.484375 "/></g></g><g clip-rule="nonzero" clip-path="url(#14dff6133e)"><path style=" stroke:none;fill-rule:nonzero;fill:#ed1c24;fill-opacity:1;" d="M 234.207031 129.261719 C 232.589844 129.261719 231.625 130.535156 232.058594 132.089844 L 244.527344 176.703125 C 244.964844 178.261719 245.699219 178.269531 246.164062 176.722656 L 259.628906 132.074219 C 260.097656 130.527344 259.15625 129.261719 257.542969 129.261719 L 249.132812 129.261719 C 247.515625 129.261719 244.875 129.261719 243.257812 129.261719 Z M 234.207031 129.261719 "/></g><path style=" stroke:none;fill-rule:nonzero;fill:#ed1c24;fill-opacity:1;" d="M 263.054688 141.53125 C 261.96875 140.847656 260.777344 141.289062 260.40625 142.523438 L 249.785156 177.875 C 249.417969 179.109375 249.910156 179.429688 250.882812 178.585938 L 278.976562 154.253906 C 279.949219 153.414062 279.855469 152.160156 278.769531 151.472656 L 273.105469 147.890625 C 272.019531 147.203125 270.238281 146.074219 269.148438 145.386719 Z M 263.054688 141.53125 "/><g clip-rule="nonzero" clip-path="url(#86ff764d09)"><path style=" stroke:none;fill-rule:nonzero;fill:#ed1c24;fill-opacity:1;" d="M 276.324219 164.199219 C 275.917969 163.292969 274.960938 163.074219 274.195312 163.707031 L 252.289062 181.925781 C 251.523438 182.558594 251.703125 182.972656 252.691406 182.847656 L 281.140625 179.171875 C 282.125 179.042969 282.601562 178.199219 282.195312 177.292969 L 280.078125 172.574219 C 279.671875 171.667969 279.007812 170.183594 278.601562 169.277344 Z M 276.324219 164.199219 "/></g><path style=" stroke:none;fill-rule:nonzero;fill:#ed1c24;fill-opacity:1;" d="M 275.851562 184.527344 C 275.972656 183.757812 275.433594 183.203125 274.660156 183.296875 L 252.4375 185.964844 C 251.664062 186.058594 251.601562 186.410156 252.308594 186.75 L 272.640625 196.457031 C 273.34375 196.792969 274.015625 196.4375 274.136719 195.667969 L 274.753906 191.65625 C 274.875 190.882812 275.066406 189.621094 275.1875 188.847656 Z M 275.851562 184.527344 "/><path style=" stroke:none;fill-rule:nonzero;fill:#ed1c24;fill-opacity:1;" d="M 266.820312 197.871094 C 267.242188 197.40625 267.128906 196.792969 266.566406 196.511719 L 250.417969 188.378906 C 249.851562 188.09375 249.660156 188.308594 249.980469 188.847656 L 259.328125 204.46875 C 259.648438 205.007812 260.261719 205.070312 260.6875 204.605469 L 262.898438 202.175781 C 263.320312 201.710938 264.015625 200.949219 264.441406 200.480469 Z M 266.820312 197.871094 "/><g clip-rule="nonzero" clip-path="url(#f6eece533a)"><path style=" stroke:none;fill-rule:nonzero;fill:#ed1c24;fill-opacity:1;" d="M 254.214844 204.894531 C 254.710938 204.792969 254.925781 204.335938 254.6875 203.886719 L 247.960938 190.964844 C 247.726562 190.515625 247.5 190.558594 247.457031 191.066406 L 246.207031 205.675781 C 246.164062 206.183594 246.535156 206.511719 247.03125 206.40625 L 249.617188 205.863281 C 250.117188 205.757812 250.929688 205.585938 251.425781 205.484375 Z M 254.214844 204.894531 "/></g><path style=" stroke:none;fill-rule:nonzero;fill:#ed1c24;fill-opacity:1;" d="M 243.425781 204.277344 C 243.851562 204.402344 244.203125 204.144531 244.210938 203.703125 L 244.449219 191.027344 C 244.460938 190.585938 244.265625 190.527344 244.023438 190.894531 L 236.980469 201.542969 C 236.738281 201.910156 236.886719 202.316406 237.308594 202.441406 L 239.511719 203.105469 C 239.9375 203.230469 240.628906 203.4375 241.050781 203.566406 Z M 243.425781 204.277344 "/><path style=" stroke:none;fill-rule:nonzero;fill:#ed1c24;fill-opacity:1;" d="M 234.925781 195.765625 C 235.105469 196.0625 235.449219 196.101562 235.6875 195.851562 L 242.59375 188.628906 C 242.835938 188.378906 242.753906 188.242188 242.417969 188.324219 L 232.652344 190.738281 C 232.316406 190.820312 232.183594 191.136719 232.359375 191.433594 L 233.285156 192.992188 C 233.464844 193.292969 233.753906 193.785156 233.933594 194.082031 Z M 234.925781 195.765625 "/><path style=" stroke:none;fill-rule:nonzero;fill:#ed1c24;fill-opacity:1;" d="M 233.917969 185.21875 C 233.871094 185.480469 234.050781 185.671875 234.3125 185.648438 L 241.875 184.875 C 242.140625 184.847656 242.160156 184.726562 241.925781 184.609375 L 235.078125 181.1875 C 234.839844 181.070312 234.609375 181.1875 234.566406 181.449219 L 234.332031 182.804688 C 234.285156 183.066406 234.210938 183.496094 234.167969 183.757812 Z M 233.917969 185.21875 "/><path style=" stroke:none;fill-rule:nonzero;fill:#ed1c24;fill-opacity:1;" d="M 236.257812 178.578125 C 236.152344 178.769531 236.238281 178.960938 236.445312 179.011719 L 242.441406 180.453125 C 242.648438 180.5 242.695312 180.414062 242.546875 180.261719 L 238.230469 175.804688 C 238.078125 175.652344 237.871094 175.679688 237.765625 175.867188 L 237.222656 176.847656 C 237.117188 177.035156 236.945312 177.339844 236.839844 177.527344 Z M 236.257812 178.578125 "/></g></svg>