<svg version="1.1" id="Layer_1" xmlns="http://www.w3.org/2000/svg" xmlns:xlink="http://www.w3.org/1999/xlink" x="0px" y="0px"
	 width="100%" viewBox="0 0 500 500" enable-background="new 0 0 500 500" xml:space="preserve">
<path fill="#000000" opacity="1.000000" stroke="none" 
	d="
M284.000000,501.000000 
	C189.333359,501.000000 95.166710,501.000000 1.000051,501.000000 
	C1.000034,334.333405 1.000034,167.666794 1.000017,1.000140 
	C167.666565,1.000093 334.333130,1.000093 500.999756,1.000047 
	C500.999847,167.666519 500.999847,334.333038 500.999939,500.999786 
	C428.833344,501.000000 356.666656,501.000000 284.000000,501.000000 
M313.915894,242.909363 
	C313.915894,242.909363 313.821869,242.895844 313.211029,242.982559 
	C312.853027,243.421707 312.494995,243.860870 312.201294,245.077011 
	C311.737122,251.023895 316.412994,248.302505 319.006195,249.874695 
	C319.002014,250.898010 318.997833,251.921326 318.236267,253.147934 
	C315.861542,253.778259 313.486847,254.408585 310.739105,255.114410 
	C310.647186,255.198944 310.463837,255.309967 310.479340,255.363373 
	C310.543457,255.584534 310.667633,255.788300 310.893829,256.499542 
	C310.928589,256.668091 310.963318,256.836609 310.972656,257.823242 
	C311.137878,259.409271 311.022247,261.104004 311.577606,262.539032 
	C311.891907,263.351013 313.308197,263.736481 314.228119,264.314056 
	C314.495880,263.618286 314.763611,262.922516 315.429230,262.027985 
	C315.429230,262.027985 315.861847,261.924744 316.385773,261.772736 
	C316.571838,261.472626 316.757904,261.172485 317.121368,260.446106 
	C317.291382,260.163574 317.538971,259.994904 318.553070,260.247833 
	C319.765503,260.515228 320.977966,260.782593 322.016388,261.574860 
	C321.905121,261.721802 321.793823,261.868774 321.376556,262.197510 
	C321.192108,262.358795 321.066528,262.557343 320.468445,263.265167 
	C319.459717,264.547638 318.201447,265.712128 317.521545,267.150055 
	C316.982117,268.290924 317.151001,269.766693 317.135223,271.770996 
	C319.093933,272.176270 321.052643,272.581543 323.798462,272.989807 
	C324.835480,272.893402 325.872498,272.796967 326.958649,273.476776 
	C327.706909,274.248322 328.455170,275.019867 328.991241,275.968109 
	C328.991241,275.968109 329.209351,275.801727 329.195251,276.553589 
	C332.895050,276.338531 336.598633,276.162750 340.285400,275.811096 
	C340.507080,275.789978 340.594971,274.365784 340.690582,273.314056 
	C340.690582,273.314056 340.787598,273.045349 341.303619,272.765442 
	C340.900238,272.161926 340.496857,271.558441 339.651123,270.580933 
	C339.477875,270.041687 339.304596,269.502472 339.827271,268.982330 
	C340.582031,268.565399 341.336823,268.148468 342.619751,268.046967 
	C343.079437,268.702911 343.539093,269.358856 344.172516,270.443878 
	C344.340271,270.716064 344.571472,270.914185 344.959869,271.057404 
	C344.959869,271.057404 344.924500,271.146301 344.949158,271.926636 
	C345.697052,273.234253 346.330048,275.521118 347.219208,275.625458 
	C348.637451,275.791931 350.432648,274.767303 351.691254,273.770172 
	C353.327423,272.473938 354.321930,270.212555 356.077240,269.254486 
	C359.662811,267.297455 363.585480,265.962250 367.305969,264.234558 
	C367.478333,264.154510 367.034668,262.747925 366.848694,261.215698 
	C366.974670,260.485138 367.100647,259.754578 367.924805,258.838959 
	C370.858063,255.813416 370.617554,252.465256 368.830597,248.295776 
	C368.839233,247.615204 368.847839,246.934631 368.802155,245.707993 
	C368.558044,245.442841 368.313904,245.177673 368.091980,244.263901 
	C368.401642,243.235382 368.711334,242.206863 369.668701,240.987778 
	C370.116089,241.005219 370.563477,241.022659 371.537811,241.580872 
	C373.606232,241.812073 376.147461,243.422058 376.917725,239.352722 
	C376.917725,239.352722 377.122345,239.009995 377.930359,239.011261 
	C381.847595,239.269180 383.781616,237.877502 382.772156,234.341995 
	C380.035461,233.881241 377.911835,233.523712 375.793915,233.062851 
	C375.793915,233.062851 375.835083,233.157791 375.945221,232.306961 
	C374.617096,228.054062 373.650543,223.629532 371.758789,219.644165 
	C371.122894,218.304520 368.374146,214.598175 366.039856,219.067810 
	C366.039856,219.067810 366.133789,219.077133 365.618408,219.233856 
	C365.435181,219.530533 365.251953,219.827209 365.094177,220.091537 
	C365.094177,220.091537 365.115082,220.136307 364.339844,220.024643 
	C363.492767,218.958527 362.645721,217.892395 361.852020,216.844116 
	C361.852020,216.844116 361.827271,216.893417 362.360535,216.741272 
	C362.551971,216.438080 362.743439,216.134903 363.111816,215.400909 
	C363.314789,215.138748 363.581543,214.994827 364.395691,214.815445 
	C364.602203,214.556015 364.808746,214.296585 365.002533,214.010117 
	C365.002533,214.010117 365.034302,214.019623 365.798096,214.011475 
	C368.968719,211.873383 372.406830,210.020264 375.159302,207.436707 
	C376.075470,206.576797 375.982117,203.230682 375.046783,202.089523 
	C372.791138,199.337555 369.799530,197.176208 367.031128,194.864822 
	C366.187744,194.160706 365.140015,193.663788 364.123413,193.212769 
	C362.206299,192.362244 359.920929,192.013138 358.359161,190.750137 
	C353.149384,186.537079 348.913086,186.186615 345.269012,190.426895 
	C345.139587,188.721237 345.030090,187.277924 344.905792,185.198593 
	C345.018127,184.791183 345.130432,184.383774 345.632477,183.615295 
	C345.695892,183.272430 345.759308,182.929550 345.796539,182.262207 
	C345.796539,182.262207 345.977844,181.991837 346.735077,182.016647 
	C349.249969,182.958054 351.764862,183.899475 354.279755,184.840897 
	C354.597168,184.286804 354.914612,183.732727 355.232056,183.178650 
	C353.044525,181.825424 350.856995,180.472214 348.510986,179.020981 
	C348.639221,177.846451 349.161285,176.319901 348.881989,174.957657 
	C348.265594,171.951416 346.487213,169.459167 343.080536,170.368500 
	C333.408447,172.950150 323.834106,172.975769 314.171631,170.455429 
	C313.297852,170.227524 312.037354,170.890411 311.140503,171.439957 
	C305.926147,174.635086 307.072052,179.858231 306.871490,184.966873 
	C308.917175,185.334518 310.847015,185.681335 313.007629,186.643524 
	C313.062439,187.076767 313.117249,187.509995 312.567352,188.326477 
	C311.012390,189.796524 309.457428,191.266571 307.902466,192.736618 
	C308.238403,193.062164 308.574341,193.387711 308.910309,193.713257 
	C310.833099,193.489746 312.755859,193.266251 314.929535,193.664886 
	C314.952271,194.109436 314.974976,194.553986 314.439758,195.533356 
	C314.654114,197.702728 314.680725,199.912033 315.131744,202.031036 
	C315.659821,204.512238 317.462616,207.057449 317.105713,209.321609 
	C316.370911,213.983170 318.650513,216.569733 322.040344,219.422134 
	C322.040344,219.422134 322.053925,219.885361 321.988892,220.779785 
	C322.369537,224.412292 322.750183,228.044800 323.129913,231.677353 
	C317.217682,231.167450 314.219727,234.511032 313.910400,242.357803 
	C313.910400,242.357803 313.901123,242.815536 313.915894,242.909363 
M256.436584,216.074295 
	C256.289307,216.716721 256.141998,217.359161 255.805099,218.839920 
	C255.866913,219.691544 255.928726,220.543167 254.930344,221.603333 
	C254.606949,221.444794 254.283554,221.286240 253.883102,220.426147 
	C249.275803,214.950546 243.452271,214.321671 236.418121,216.152466 
	C235.544861,216.562119 234.671616,216.971756 233.203094,217.624252 
	C231.906113,218.647568 230.609116,219.670883 228.902008,221.063965 
	C228.755585,221.175491 228.609161,221.287033 227.726776,221.510925 
	C224.884750,216.973816 220.524994,215.255737 215.447723,215.225372 
	C208.833908,215.185791 205.064667,219.272156 202.745819,225.222443 
	C196.747955,217.301041 191.290817,215.700455 181.974426,218.172134 
	C181.797577,217.951447 181.620728,217.730774 181.419571,216.632111 
	C181.755371,214.536194 182.091171,212.440277 182.493347,209.930054 
	C188.933060,209.930054 195.176529,209.930054 201.272064,209.930054 
	C201.272064,206.903427 201.272064,204.349854 201.272064,201.747864 
	C192.274399,201.747864 183.692627,201.747864 174.691757,201.747864 
	C173.610992,209.420334 172.552689,216.933426 171.511200,224.327087 
	C177.767609,227.630173 177.706146,227.212891 184.493439,226.213165 
	C187.143478,225.822861 190.645889,227.164169 192.771698,228.916107 
	C193.898880,229.845047 193.839645,234.470856 192.671448,235.434799 
	C190.559540,237.177429 187.178162,238.191528 184.396118,238.058731 
	C182.123672,237.950256 179.952133,235.727570 177.482193,234.295120 
	C175.380859,235.565643 172.994278,237.008621 170.635391,238.434875 
	C175.788574,249.523956 188.748413,250.376755 201.902328,240.740311 
	C210.295883,249.859222 221.480316,250.389069 227.638306,241.716232 
	C228.051178,241.925812 228.464066,242.135406 228.983505,243.016785 
	C233.675140,248.149200 237.574295,248.901077 244.830841,245.715561 
	C245.800644,245.377502 246.770432,245.039444 247.449341,245.405655 
	C249.750671,245.876343 252.052002,246.347031 254.883545,246.975494 
	C255.182190,246.652145 255.480850,246.328812 255.947296,245.080887 
	C255.677429,237.945419 255.407578,230.809937 256.068878,223.839798 
	C256.380371,223.791367 256.691895,223.742935 257.899963,223.874420 
	C260.485748,223.463394 261.318024,224.500244 261.242401,227.141434 
	C261.057526,233.597702 261.182098,240.062836 261.182098,246.707687 
	C264.418762,246.707687 267.282196,246.707687 270.585602,246.707687 
	C270.585602,238.998901 270.585602,231.591370 270.585602,223.057709 
	C273.887726,224.013199 277.782654,223.954773 278.894379,225.684845 
	C282.187836,230.809982 284.523651,236.581741 286.900635,242.240662 
	C287.435303,243.513489 286.907990,245.465515 286.364563,246.915634 
	C284.520050,251.837601 282.449341,256.674774 280.435486,261.616821 
	C289.501923,263.220062 289.527740,263.230621 292.547668,255.840134 
	C296.756805,245.539429 300.932159,235.224854 305.100922,224.907715 
	C306.239960,222.088730 307.303711,219.239319 308.517212,216.106522 
	C305.012115,216.106522 302.197052,216.106522 299.296570,216.106522 
	C297.076477,221.692291 294.885742,227.204163 292.452240,233.326782 
	C290.989410,230.060669 289.772308,227.353348 288.563812,224.642197 
	C287.287323,221.778381 286.019104,218.910904 284.666290,215.862549 
	C279.890106,215.862549 275.263702,215.862549 270.662170,215.862549 
	C270.240448,209.124344 270.308960,209.048141 278.521729,206.749603 
	C278.521729,204.599884 278.521729,202.484406 278.521729,200.431244 
	C267.281677,197.916290 262.331421,202.229431 260.798859,215.792923 
	C259.567017,215.917282 258.284302,216.046783 256.436584,216.074295 
M193.926971,272.903992 
	C195.558929,266.460419 194.533966,265.242035 188.414673,266.396027 
	C188.414673,268.825073 188.414673,271.257629 188.414673,274.235291 
	C190.291122,273.943848 191.849518,273.701782 193.926971,272.903992 
M155.227432,268.890472 
	C155.227432,270.491241 155.227432,272.092010 155.227432,273.949860 
	C157.146912,273.949860 158.732758,274.311676 159.984695,273.821198 
	C160.803391,273.500427 161.781860,271.763000 161.560547,270.978271 
	C161.042877,269.142792 159.845627,267.498932 158.923553,265.777496 
	C157.686188,266.545380 156.448837,267.313232 155.227432,268.890472 
M220.082779,269.923615 
	C218.915268,268.515961 217.983871,266.593689 216.485870,265.906403 
	C215.673096,265.533539 212.962219,267.072723 212.755173,268.086029 
	C212.370636,269.968018 213.193146,272.096680 213.649033,274.983398 
	C216.517502,273.009033 218.310532,271.774902 220.082779,269.923615 
M298.318573,265.854797 
	C297.868469,268.487488 297.418396,271.120148 296.968292,273.752838 
	C297.326660,274.140411 297.684998,274.527985 298.043335,274.915558 
	C299.923401,269.683624 301.752350,269.411377 303.884094,273.922546 
	C303.884094,271.233978 303.884094,268.545441 303.884094,265.597107 
	C302.467255,266.942596 301.443604,267.914703 300.419983,268.886810 
	C299.935822,267.979340 299.451630,267.071899 298.318573,265.854797 
M277.164215,271.351379 
	C276.265350,269.376587 275.366486,267.401794 274.467651,265.426971 
	C274.008301,265.450134 273.548981,265.473267 273.089630,265.496399 
	C271.967346,268.187805 270.845032,270.879242 269.958679,273.004822 
	C272.448181,273.352753 274.502777,273.704926 276.571716,273.842621 
	C276.816467,273.858948 277.139435,272.700562 277.164215,271.351379 
M169.775574,266.458862 
	C169.458359,268.344818 169.141144,270.230774 168.823929,272.116730 
	C168.368393,272.083221 167.912872,272.049713 167.457336,272.016174 
	C167.031433,269.927460 166.605530,267.838715 166.179611,265.750000 
	C165.759491,265.829590 165.339355,265.909210 164.919220,265.988800 
	C164.919220,267.900757 164.546768,269.921722 165.062073,271.682892 
	C165.360474,272.702820 167.028427,273.797363 168.191422,273.938110 
	C169.115524,274.049957 171.039993,272.799347 171.069016,272.093903 
	C171.152130,270.074524 170.496689,268.024689 169.775574,266.458862 
M233.871735,268.762115 
	C233.954391,270.474396 234.037048,272.186707 234.082336,273.124847 
	C236.430725,273.368500 238.091812,273.540863 239.162933,273.651978 
	C239.433426,272.176941 240.016464,270.735809 239.850128,269.387085 
	C239.701263,268.180145 238.917648,266.306091 238.073517,266.096161 
	C236.625656,265.736145 233.858948,264.245636 233.871735,268.762115 
M261.882111,268.863007 
	C261.882111,270.494354 261.882111,272.125702 261.882111,274.103790 
	C263.891022,274.008453 265.528625,273.930725 267.166229,273.852997 
	C267.204834,273.543304 267.243469,273.233612 267.282074,272.923920 
	C266.230347,272.482025 265.178589,272.040131 263.984100,271.538239 
	C265.146301,271.010284 266.100372,270.576874 267.890320,269.763733 
	C266.047058,269.157776 265.106110,268.848450 263.671295,268.376770 
	C265.230377,267.721863 266.333069,267.258698 267.435760,266.795502 
	C265.376434,266.533081 262.562042,263.445557 261.882111,268.863007 
M292.189728,271.134735 
	C292.852966,269.443390 293.516205,267.752045 294.188202,266.051086 
	C292.166870,266.051086 290.145538,266.051086 288.608459,266.051086 
	C289.464355,268.904480 290.247375,271.515076 291.397064,275.348022 
	C291.862000,273.375977 292.029358,272.666016 292.189728,271.134735 
z"/>
<path fill="#F6F6F6" opacity="1.000000" stroke="none" 
	d="
M182.423080,218.892227 
	C191.290817,215.700455 196.747955,217.301041 202.745819,225.222443 
	C205.064667,219.272156 208.833908,215.185791 215.447723,215.225372 
	C220.524994,215.255737 224.884750,216.973816 228.224106,221.514435 
	C228.918320,221.243362 229.115219,220.968765 229.312119,220.694183 
	C230.609116,219.670883 231.906113,218.647568 233.632477,217.808197 
	C235.041916,217.391434 236.021988,216.790741 237.002075,216.190048 
	C243.452271,214.321671 249.275803,214.950546 253.939697,221.018219 
	C254.376755,222.298370 254.757233,222.986420 255.137726,223.674469 
	C255.407578,230.809937 255.677429,237.945419 255.475433,245.691055 
	C254.786819,246.473373 254.570084,246.645538 254.353333,246.817719 
	C252.052002,246.347031 249.750671,245.876343 247.645935,244.795898 
	C246.561478,244.761536 245.280441,245.336929 243.999405,245.912323 
	C237.574295,248.901077 233.675140,248.149200 228.936310,242.367004 
	C228.546875,241.296021 228.204636,240.874802 227.862427,240.453583 
	C227.567230,240.945129 227.272034,241.436661 226.976837,241.928192 
	C221.480316,250.389069 210.295883,249.859222 201.902328,240.740311 
	C188.748413,250.376755 175.788574,249.523956 170.635391,238.434875 
	C172.994278,237.008621 175.380859,235.565643 177.482193,234.295120 
	C179.952133,235.727570 182.123672,237.950256 184.396118,238.058731 
	C187.178162,238.191528 190.559540,237.177429 192.671448,235.434799 
	C193.839645,234.470856 193.898880,229.845047 192.771698,228.916107 
	C190.645889,227.164169 187.143478,225.822861 184.493439,226.213165 
	C177.706146,227.212891 177.767609,227.630173 171.511200,224.327087 
	C172.552689,216.933426 173.610992,209.420334 174.691757,201.747864 
	C183.692627,201.747864 192.274399,201.747864 201.272064,201.747864 
	C201.272064,204.349854 201.272064,206.903427 201.272064,209.930054 
	C195.176529,209.930054 188.933060,209.930054 182.493347,209.930054 
	C182.091171,212.440277 181.755371,214.536194 181.287827,217.342285 
	C181.578415,218.332382 182.000748,218.612305 182.423080,218.892227 
M241.345749,228.806366 
	C243.490952,228.373611 247.270813,229.841171 246.550095,225.868866 
	C246.311920,224.556198 242.456406,223.216812 240.225098,223.164780 
	C238.438904,223.123123 236.607666,225.012039 234.229416,226.367203 
	C232.274460,225.047379 229.933334,223.466812 227.345978,221.720032 
	C225.788818,222.656387 223.693710,223.916214 221.533173,225.215393 
	C220.526199,224.503098 219.580307,223.277832 218.650101,223.289612 
	C216.593445,223.315689 214.544662,223.964066 212.492676,224.358582 
	C213.889328,225.480469 215.148590,226.869766 216.709579,227.671844 
	C220.672104,229.707855 224.769806,231.480774 229.021118,233.455536 
	C231.300766,229.781021 235.763016,228.922256 241.345749,228.806366 
M205.142593,238.934387 
	C207.225159,237.530869 209.012131,236.234207 211.490692,238.858322 
	C212.577362,240.008789 215.152344,239.986526 217.059540,240.018433 
	C217.863251,240.031891 218.687637,238.809372 219.502625,238.148697 
	C218.900085,237.441788 218.437775,236.423843 217.672150,236.078659 
	C212.881119,233.918594 208.022400,231.908676 203.269760,229.884674 
	C202.949615,232.898117 202.559830,236.566940 202.146484,240.457626 
	C202.973190,240.031265 203.689224,239.661972 205.142593,238.934387 
M246.783020,236.181870 
	C245.165909,233.951523 240.097366,233.320587 238.208344,235.490906 
	C237.427505,236.388016 237.828003,238.313370 237.691254,239.771088 
	C240.104218,239.639877 242.545715,239.675339 244.911697,239.269928 
	C245.571060,239.156952 246.007034,237.740326 246.783020,236.181870 
z"/>
<path fill="#F6F6F6" opacity="1.000000" stroke="none" 
	d="
M255.990540,221.394791 
	C255.928726,220.543167 255.866913,219.691544 256.097290,218.314713 
	C256.593536,217.251755 256.797546,216.714005 257.001587,216.176270 
	C258.284302,216.046783 259.567017,215.917282 260.798859,215.792923 
	C262.331421,202.229431 267.281677,197.916290 278.521729,200.431244 
	C278.521729,202.484406 278.521729,204.599884 278.521729,206.749603 
	C270.308960,209.048141 270.240448,209.124344 270.662170,215.862549 
	C275.263702,215.862549 279.890106,215.862549 284.666290,215.862549 
	C286.019104,218.910904 287.287323,221.778381 288.563812,224.642197 
	C289.772308,227.353348 290.989410,230.060669 292.452240,233.326782 
	C294.885742,227.204163 297.076477,221.692291 299.296570,216.106522 
	C302.197052,216.106522 305.012115,216.106522 308.517212,216.106522 
	C307.303711,219.239319 306.239960,222.088730 305.100922,224.907715 
	C300.932159,235.224854 296.756805,245.539429 292.547668,255.840134 
	C289.527740,263.230621 289.501923,263.220062 280.435486,261.616821 
	C282.449341,256.674774 284.520050,251.837601 286.364563,246.915634 
	C286.907990,245.465515 287.435303,243.513489 286.900635,242.240662 
	C284.523651,236.581741 282.187836,230.809982 278.894379,225.684845 
	C277.782654,223.954773 273.887726,224.013199 270.585602,223.057709 
	C270.585602,231.591370 270.585602,238.998901 270.585602,246.707687 
	C267.282196,246.707687 264.418762,246.707687 261.182098,246.707687 
	C261.182098,240.062836 261.057526,233.597702 261.242401,227.141434 
	C261.318024,224.500244 260.485748,223.463394 257.440430,223.568939 
	C256.650787,222.640579 256.320648,222.017685 255.990540,221.394791 
z"/>
<path fill="#E11E26" opacity="1.000000" stroke="none" 
	d="
M314.997711,194.998535 
	C314.974976,194.553986 314.952271,194.109436 314.841614,193.011261 
	C314.226471,190.886169 313.699249,189.414703 313.172058,187.943237 
	C313.117249,187.509995 313.062439,187.076767 312.920868,185.958603 
	C312.302155,183.536118 311.722015,181.811615 311.247192,180.058578 
	C309.744446,174.510468 310.361603,173.668106 316.128174,173.637634 
	C324.727051,173.592178 333.328461,173.731201 341.924500,173.566528 
	C346.070862,173.487076 347.955200,174.761337 346.549194,179.104538 
	C346.249146,180.031494 346.162720,181.027603 345.977844,181.991837 
	C345.977844,181.991837 345.796539,182.262207 345.598938,182.598557 
	C345.348450,183.282059 345.295593,183.629211 345.242737,183.976364 
	C345.130432,184.383774 345.018127,184.791183 344.677795,185.800598 
	C339.211334,203.487854 333.972839,220.573074 328.734344,237.658310 
	C328.345734,237.549973 327.957123,237.441650 327.568481,237.333313 
	C325.730316,231.517334 323.892120,225.701340 322.053955,219.885361 
	C322.053925,219.885361 322.040344,219.422134 321.956665,218.834427 
	C319.581238,210.497314 317.289490,202.747925 314.997711,194.998535 
z"/>
<path fill="#190202" opacity="1.000000" stroke="none" 
	d="
M322.021423,220.332581 
	C323.892120,225.701340 325.730316,231.517334 327.568481,237.333313 
	C327.957123,237.441650 328.345734,237.549973 328.734344,237.658310 
	C333.972839,220.573074 339.211334,203.487854 344.685181,186.118622 
	C345.030090,187.277924 345.139587,188.721237 345.269012,190.426895 
	C348.913086,186.186615 353.149384,186.537079 358.359161,190.750137 
	C359.920929,192.013138 362.206299,192.362244 364.123413,193.212769 
	C365.140015,193.663788 366.187744,194.160706 367.031128,194.864822 
	C369.799530,197.176208 372.791138,199.337555 375.046783,202.089523 
	C375.982117,203.230682 376.075470,206.576797 375.159302,207.436707 
	C372.406830,210.020264 368.968719,211.873383 365.537109,213.703751 
	C367.386566,211.525314 369.437225,209.581039 371.622833,207.802628 
	C374.311127,205.615204 374.119568,203.907028 371.192535,202.092316 
	C365.409546,198.506958 359.641693,194.886673 354.013519,191.065857 
	C350.293976,188.540771 348.557770,189.498062 347.392822,193.643692 
	C344.881409,202.580841 342.057648,211.429810 339.414581,220.330536 
	C337.590881,226.471954 335.855713,232.639679 333.759186,239.911926 
	C335.760803,238.414627 336.817810,237.695953 337.795044,236.881561 
	C345.804657,230.206543 353.799408,223.513718 361.798645,216.826279 
	C362.645721,217.892395 363.492767,218.958527 364.587189,220.384338 
	C355.634125,228.443359 346.433716,236.142715 336.473969,244.477493 
	C338.243225,244.477493 338.860870,244.535477 339.464752,244.468811 
	C349.317871,243.381332 359.169250,242.278061 369.021027,241.178345 
	C368.711334,242.206863 368.401642,243.235382 367.672882,244.609192 
	C365.511597,245.281082 363.769409,245.607651 361.656677,246.040833 
	C359.515930,246.358612 357.745697,246.569778 355.875916,246.650742 
	C355.431305,246.368683 355.177185,246.477783 354.624298,246.926132 
	C352.913269,247.042191 351.591919,247.079895 349.891235,247.071259 
	C348.355255,247.292816 347.198608,247.560699 345.655334,247.922775 
	C343.690155,248.085175 342.111603,248.153397 340.182922,248.172226 
	C339.233459,248.397003 338.634125,248.671143 337.863403,249.107086 
	C338.130890,249.860565 338.569763,250.452255 339.139496,251.261627 
	C339.576141,251.605804 339.881897,251.732330 340.197205,251.823898 
	C340.206726,251.788956 340.278992,251.794098 340.034210,252.067261 
	C338.875793,252.553177 337.962158,252.765930 337.027710,252.993057 
	C337.006897,253.007416 337.001648,252.957077 336.809021,252.721848 
	C335.711823,252.405029 334.807220,252.323441 333.902649,252.241852 
	C334.212006,252.492157 334.521362,252.742477 334.916992,253.357666 
	C337.366028,258.392212 339.728790,263.061890 342.091583,267.731567 
	C341.336823,268.148468 340.582031,268.565399 339.451721,269.001465 
	C339.076202,269.020630 339.007233,268.981262 338.948364,268.793518 
	C338.770813,268.362793 338.592712,268.176788 338.104553,267.763611 
	C335.869446,263.613831 333.884918,259.748138 331.900360,255.882446 
	C331.412109,255.983551 330.923859,256.084656 330.435608,256.185760 
	C330.304077,258.461090 330.172577,260.736450 329.588074,263.109192 
	C328.854645,263.335968 328.574249,263.465363 327.901672,263.502136 
	C327.181976,261.128540 326.854462,258.847626 326.470245,256.171631 
	C324.763916,258.116577 323.477142,259.583252 322.190399,261.049957 
	C320.977966,260.782593 319.765503,260.515228 318.357910,259.789734 
	C319.764130,257.559601 321.365509,255.787567 323.495636,253.430435 
	C321.432861,253.207855 320.213257,253.076248 318.993652,252.944641 
	C318.997833,251.921326 319.002014,250.898010 319.317566,249.394501 
	C320.544617,248.528763 321.460236,248.143204 323.266510,247.382614 
	C319.947235,245.511108 317.456085,244.106552 314.837097,242.525955 
	C314.491455,242.149033 314.242828,241.999283 313.963409,241.900665 
	C314.219727,234.511032 317.217682,231.167450 323.130371,231.677322 
	C322.750183,228.044800 322.369537,224.412292 322.021423,220.332581 
M318.161621,235.791397 
	C317.606293,237.207535 317.050964,238.623688 316.303467,240.529892 
	C319.511017,239.908264 321.381317,239.545807 323.972076,239.043716 
	C321.974518,237.665314 320.331482,236.531540 318.161621,235.791397 
M364.419189,243.484116 
	C364.419189,243.484116 364.523651,243.424118 364.419189,243.484116 
z"/>
<path fill="#E11E26" opacity="1.000000" stroke="none" 
	d="
M361.825317,216.835205 
	C353.799408,223.513718 345.804657,230.206543 337.795044,236.881561 
	C336.817810,237.695953 335.760803,238.414627 333.759186,239.911926 
	C335.855713,232.639679 337.590881,226.471954 339.414581,220.330536 
	C342.057648,211.429810 344.881409,202.580841 347.392822,193.643692 
	C348.557770,189.498062 350.293976,188.540771 354.013519,191.065857 
	C359.641693,194.886673 365.409546,198.506958 371.192535,202.092316 
	C374.119568,203.907028 374.311127,205.615204 371.622833,207.802628 
	C369.437225,209.581039 367.386566,211.525314 365.155212,213.707825 
	C365.034302,214.019623 365.002533,214.010117 364.757599,214.085663 
	C364.312469,214.430511 364.112274,214.699814 363.912048,214.969116 
	C363.581543,214.994827 363.314789,215.138748 362.763977,215.704987 
	C362.219879,216.303864 362.023590,216.598648 361.827271,216.893417 
	C361.827271,216.893417 361.852020,216.844116 361.825317,216.835205 
z"/>
<path fill="#E11E26" opacity="1.000000" stroke="none" 
	d="
M369.344849,241.083069 
	C359.169250,242.278061 349.317871,243.381332 339.464752,244.468811 
	C338.860870,244.535477 338.243225,244.477493 336.473969,244.477493 
	C346.433716,236.142715 355.634125,228.443359 364.974792,220.440155 
	C365.115082,220.136307 365.094177,220.091537 365.342407,220.036652 
	C365.771667,219.680222 365.952728,219.378677 366.133789,219.077133 
	C366.133789,219.077133 366.039856,219.067810 366.438538,219.100266 
	C368.035522,220.198730 369.600800,221.053192 370.360962,222.371780 
	C372.371796,225.859802 374.034058,229.548798 375.835083,233.157791 
	C375.835083,233.157791 375.793915,233.062851 375.810303,233.487793 
	C376.258606,235.611832 376.690491,237.310913 377.122375,239.009995 
	C377.122345,239.009995 376.917725,239.352722 376.510803,239.589310 
	C374.406189,240.230621 372.708527,240.635345 371.010864,241.040100 
	C370.563477,241.022659 370.116089,241.005219 369.344849,241.083069 
z"/>
<path fill="#E11E26" opacity="1.000000" stroke="none" 
	d="
M355.975464,246.780975 
	C357.745697,246.569778 359.515930,246.358612 362.083191,246.092926 
	C364.872314,246.110275 366.864380,246.182175 368.856476,246.254059 
	C368.847839,246.934631 368.839233,247.615204 368.635345,248.930038 
	C368.035614,252.717545 367.631104,255.870773 367.226624,259.024017 
	C367.100647,259.754578 366.974670,260.485138 366.558563,261.750488 
	C364.565186,261.997406 362.718292,262.037170 361.183777,261.364441 
	C354.881927,258.601654 348.675171,255.622116 342.221863,252.498886 
	C341.433197,252.115005 340.856079,251.954559 340.278992,251.794098 
	C340.278992,251.794098 340.206726,251.788956 340.090759,251.583679 
	C339.652710,251.266907 339.330688,251.155426 339.008636,251.043945 
	C338.569763,250.452255 338.130890,249.860565 338.200562,249.147583 
	C339.317047,248.758057 339.925049,248.489838 340.533020,248.221619 
	C342.111603,248.153397 343.690155,248.085175 346.017273,247.990280 
	C347.934052,247.681595 349.102295,247.399597 350.270569,247.117599 
	C351.591919,247.079895 352.913269,247.042191 354.868958,246.971298 
	C355.503265,246.938126 355.975464,246.780975 355.975464,246.780975 
z"/>
<path fill="#CE222C" opacity="1.000000" stroke="none" 
	d="
M342.355652,267.889282 
	C339.728790,263.061890 337.366028,258.392212 335.279602,253.343475 
	C336.037872,252.961975 336.519775,252.959534 337.001648,252.957092 
	C337.001648,252.957077 337.006897,253.007416 337.227356,253.246399 
	C338.632141,253.979797 339.816467,254.474213 341.284912,255.161194 
	C346.678925,258.157623 351.788849,260.961456 357.334961,264.004669 
	C354.036560,267.691437 351.146729,270.921509 347.465515,275.036194 
	C346.350586,273.329376 345.637543,272.237823 344.924500,271.146301 
	C344.924500,271.146301 344.959869,271.057404 344.884766,270.790894 
	C344.539337,270.354523 344.269043,270.184662 343.998749,270.014801 
	C343.539093,269.358856 343.079437,268.702911 342.355652,267.889282 
z"/>
<path fill="#190202" opacity="1.000000" stroke="none" 
	d="
M346.356476,182.004242 
	C346.162720,181.027603 346.249146,180.031494 346.549194,179.104538 
	C347.955200,174.761337 346.070862,173.487076 341.924500,173.566528 
	C333.328461,173.731201 324.727051,173.592178 316.128174,173.637634 
	C310.361603,173.668106 309.744446,174.510468 311.247192,180.058578 
	C311.722015,181.811615 312.302155,183.536118 312.805481,185.650925 
	C310.847015,185.681335 308.917175,185.334518 306.871490,184.966873 
	C307.072052,179.858231 305.926147,174.635086 311.140503,171.439957 
	C312.037354,170.890411 313.297852,170.227524 314.171631,170.455429 
	C323.834106,172.975769 333.408447,172.950150 343.080536,170.368500 
	C346.487213,169.459167 348.265594,171.951416 348.881989,174.957657 
	C349.161285,176.319901 348.639221,177.846451 348.510986,179.020981 
	C350.856995,180.472214 353.044525,181.825424 355.232056,183.178650 
	C354.914612,183.732727 354.597168,184.286804 354.279755,184.840897 
	C351.764862,183.899475 349.249969,182.958054 346.356476,182.004242 
z"/>
<path fill="#190202" opacity="1.000000" stroke="none" 
	d="
M344.936829,271.536469 
	C345.637543,272.237823 346.350586,273.329376 347.465515,275.036194 
	C351.146729,270.921509 354.036560,267.691437 357.334961,264.004669 
	C351.788849,260.961456 346.678925,258.157623 341.333435,254.813004 
	C341.543060,253.755585 341.988251,253.238953 342.433411,252.722321 
	C348.675171,255.622116 354.881927,258.601654 361.183777,261.364441 
	C362.718292,262.037170 364.565186,261.997406 366.573181,262.122192 
	C367.034668,262.747925 367.478333,264.154510 367.305969,264.234558 
	C363.585480,265.962250 359.662811,267.297455 356.077240,269.254486 
	C354.321930,270.212555 353.327423,272.473938 351.691254,273.770172 
	C350.432648,274.767303 348.637451,275.791931 347.219208,275.625458 
	C346.330048,275.521118 345.697052,273.234253 344.936829,271.536469 
z"/>
<path fill="#CE222C" opacity="1.000000" stroke="none" 
	d="
M330.041077,263.011810 
	C330.172577,260.736450 330.304077,258.461090 330.435608,256.185760 
	C330.923859,256.084656 331.412109,255.983551 331.900360,255.882446 
	C333.884918,259.748138 335.869446,263.613831 338.123657,267.967804 
	C338.524048,268.717468 338.728668,268.892517 339.007233,268.981262 
	C339.007233,268.981262 339.076202,269.020630 339.103760,268.991943 
	C339.304596,269.502472 339.477875,270.041687 339.859863,271.056213 
	C340.308258,272.036102 340.547913,272.540741 340.787598,273.045349 
	C340.787598,273.045349 340.690582,273.314056 340.351501,273.582703 
	C336.411407,274.501495 332.810394,275.151611 329.209351,275.801697 
	C329.209351,275.801727 328.991241,275.968109 329.119324,275.484192 
	C329.511993,271.004120 329.776550,267.007965 330.041077,263.011810 
z"/>
<path fill="#CE222C" opacity="1.000000" stroke="none" 
	d="
M322.103394,261.312408 
	C323.477142,259.583252 324.763916,258.116577 326.470245,256.171631 
	C326.854462,258.847626 327.181976,261.128540 327.941650,263.649170 
	C328.429688,264.128998 328.578217,264.276947 328.371307,264.339355 
	C327.623169,266.560150 327.323059,268.774292 326.948578,271.268982 
	C326.885956,271.933197 326.897736,272.316864 326.909515,272.700531 
	C325.872498,272.796967 324.835480,272.893402 323.158447,272.737061 
	C320.680725,272.020813 318.843079,271.557312 317.005402,271.093781 
	C317.151001,269.766693 316.982117,268.290924 317.521545,267.150055 
	C318.201447,265.712128 319.459717,264.547638 320.944580,263.013489 
	C321.692474,262.577911 321.779724,262.329254 321.682495,262.015747 
	C321.793823,261.868774 321.905121,261.721802 322.103394,261.312408 
z"/>
<path fill="#CE222C" opacity="1.000000" stroke="none" 
	d="
M318.614960,253.046295 
	C320.213257,253.076248 321.432861,253.207855 323.495636,253.430435 
	C321.365509,255.787567 319.764130,257.559601 318.013428,259.635864 
	C317.538971,259.994904 317.291382,260.163574 316.783081,260.753876 
	C316.250488,261.349335 316.056183,261.637054 315.861847,261.924744 
	C315.861847,261.924744 315.429230,262.027985 314.958344,261.920898 
	C313.324341,260.210907 312.161194,258.608032 310.998077,257.005157 
	C310.963318,256.836609 310.928589,256.668091 310.952728,256.021729 
	C311.045135,255.375580 311.078644,255.207245 311.112122,255.038925 
	C313.486847,254.408585 315.861542,253.778259 318.614960,253.046295 
z"/>
<path fill="#D7D7D7" opacity="1.000000" stroke="none" 
	d="
M193.667450,273.181854 
	C191.849518,273.701782 190.291122,273.943848 188.414673,274.235291 
	C188.414673,271.257629 188.414673,268.825073 188.414673,266.396027 
	C194.533966,265.242035 195.558929,266.460419 193.667450,273.181854 
z"/>
<path fill="#190202" opacity="1.000000" stroke="none" 
	d="
M314.718750,195.265945 
	C317.289490,202.747925 319.581238,210.497314 321.841431,218.633408 
	C318.650513,216.569733 316.370911,213.983170 317.105713,209.321609 
	C317.462616,207.057449 315.659821,204.512238 315.131744,202.031036 
	C314.680725,199.912033 314.654114,197.702728 314.718750,195.265945 
z"/>
<path fill="#D7D7D7" opacity="1.000000" stroke="none" 
	d="
M155.219452,268.485779 
	C156.448837,267.313232 157.686188,266.545380 158.923553,265.777496 
	C159.845627,267.498932 161.042877,269.142792 161.560547,270.978271 
	C161.781860,271.763000 160.803391,273.500427 159.984695,273.821198 
	C158.732758,274.311676 157.146912,273.949860 155.227432,273.949860 
	C155.227432,272.092010 155.227432,270.491241 155.219452,268.485779 
z"/>
<path fill="#D7D7D7" opacity="1.000000" stroke="none" 
	d="
M220.093170,270.232178 
	C218.310532,271.774902 216.517502,273.009033 213.649033,274.983398 
	C213.193146,272.096680 212.370636,269.968018 212.755173,268.086029 
	C212.962219,267.072723 215.673096,265.533539 216.485870,265.906403 
	C217.983871,266.593689 218.915268,268.515961 220.093170,270.232178 
z"/>
<path fill="#D7D7D7" opacity="1.000000" stroke="none" 
	d="
M298.643005,266.009644 
	C299.451630,267.071899 299.935822,267.979340 300.419983,268.886810 
	C301.443604,267.914703 302.467255,266.942596 303.884094,265.597107 
	C303.884094,268.545441 303.884094,271.233978 303.884094,273.922546 
	C301.752350,269.411377 299.923401,269.683624 298.043335,274.915558 
	C297.684998,274.527985 297.326660,274.140411 296.968292,273.752838 
	C297.418396,271.120148 297.868469,268.487488 298.643005,266.009644 
z"/>
<path fill="#D7D7D7" opacity="1.000000" stroke="none" 
	d="
M277.295166,271.719055 
	C277.139435,272.700562 276.816467,273.858948 276.571716,273.842621 
	C274.502777,273.704926 272.448181,273.352753 269.958679,273.004822 
	C270.845032,270.879242 271.967346,268.187805 273.089630,265.496399 
	C273.548981,265.473267 274.008301,265.450134 274.467651,265.426971 
	C275.366486,267.401794 276.265350,269.376587 277.295166,271.719055 
z"/>
<path fill="#D7D7D7" opacity="1.000000" stroke="none" 
	d="
M169.953613,266.222839 
	C170.496689,268.024689 171.152130,270.074524 171.069016,272.093903 
	C171.039993,272.799347 169.115524,274.049957 168.191422,273.938110 
	C167.028427,273.797363 165.360474,272.702820 165.062073,271.682892 
	C164.546768,269.921722 164.919220,267.900757 164.919220,265.988800 
	C165.339355,265.909210 165.759491,265.829590 166.179611,265.750000 
	C166.605530,267.838715 167.031433,269.927460 167.457336,272.016174 
	C167.912872,272.049713 168.368393,272.083221 168.823929,272.116730 
	C169.141144,270.230774 169.458359,268.344818 169.953613,266.222839 
z"/>
<path fill="#D7D7D7" opacity="1.000000" stroke="none" 
	d="
M233.888016,268.352600 
	C233.858948,264.245636 236.625656,265.736145 238.073517,266.096161 
	C238.917648,266.306091 239.701263,268.180145 239.850128,269.387085 
	C240.016464,270.735809 239.433426,272.176941 239.162933,273.651978 
	C238.091812,273.540863 236.430725,273.368500 234.082336,273.124847 
	C234.037048,272.186707 233.954391,270.474396 233.888016,268.352600 
z"/>
<path fill="#CE222C" opacity="1.000000" stroke="none" 
	d="
M314.964966,242.701981 
	C317.456085,244.106552 319.947235,245.511108 323.266510,247.382614 
	C321.460236,248.143204 320.544617,248.528763 319.313477,249.010788 
	C316.412994,248.302505 311.737122,251.023895 312.456055,244.600021 
	C313.081177,243.713974 313.451508,243.304901 313.821869,242.895844 
	C313.821869,242.895844 313.915894,242.909363 314.178894,242.874405 
	C314.616241,242.793640 314.790588,242.747818 314.964966,242.701981 
z"/>
<path fill="#D7D7D7" opacity="1.000000" stroke="none" 
	d="
M261.888306,268.442505 
	C262.562042,263.445557 265.376434,266.533081 267.435760,266.795502 
	C266.333069,267.258698 265.230377,267.721863 263.671295,268.376770 
	C265.106110,268.848450 266.047058,269.157776 267.890320,269.763733 
	C266.100372,270.576874 265.146301,271.010284 263.984100,271.538239 
	C265.178589,272.040131 266.230347,272.482025 267.282074,272.923920 
	C267.243469,273.233612 267.204834,273.543304 267.166229,273.852997 
	C265.528625,273.930725 263.891022,274.008453 261.882111,274.103790 
	C261.882111,272.125702 261.882111,270.494354 261.888306,268.442505 
z"/>
<path fill="#190202" opacity="1.000000" stroke="none" 
	d="
M375.890137,232.732376 
	C374.034058,229.548798 372.371796,225.859802 370.360962,222.371780 
	C369.600800,221.053192 368.035522,220.198730 366.466766,219.138107 
	C368.374146,214.598175 371.122894,218.304520 371.758789,219.644165 
	C373.650543,223.629532 374.617096,228.054062 375.890137,232.732376 
z"/>
<path fill="#D7D7D7" opacity="1.000000" stroke="none" 
	d="
M292.193237,271.545410 
	C292.029358,272.666016 291.862000,273.375977 291.397064,275.348022 
	C290.247375,271.515076 289.464355,268.904480 288.608459,266.051086 
	C290.145538,266.051086 292.166870,266.051086 294.183838,266.055908 
	C293.516205,267.752045 292.852966,269.443390 292.193237,271.545410 
z"/>
<path fill="#190202" opacity="1.000000" stroke="none" 
	d="
M377.526367,239.010620 
	C376.690491,237.310913 376.258606,235.611832 375.807495,233.539474 
	C377.911835,233.523712 380.035461,233.881241 382.772156,234.341995 
	C383.781616,237.877502 381.847595,239.269180 377.526367,239.010620 
z"/>
<path fill="#190202" opacity="1.000000" stroke="none" 
	d="
M312.869690,188.134857 
	C313.699249,189.414703 314.226471,190.886169 314.716187,192.700195 
	C312.755859,193.266251 310.833099,193.489746 308.910309,193.713257 
	C308.574341,193.387711 308.238403,193.062164 307.902466,192.736618 
	C309.457428,191.266571 311.012390,189.796524 312.869690,188.134857 
z"/>
<path fill="#2C0202" opacity="1.000000" stroke="none" 
	d="
M329.202301,276.177643 
	C332.810394,275.151611 336.411407,274.501495 340.378784,273.722931 
	C340.594971,274.365784 340.507080,275.789978 340.285400,275.811096 
	C336.598633,276.162750 332.895050,276.338531 329.202301,276.177643 
z"/>
<path fill="#190202" opacity="1.000000" stroke="none" 
	d="
M367.575714,258.931488 
	C367.631104,255.870773 368.035614,252.717545 368.684082,249.267044 
	C370.617554,252.465256 370.858063,255.813416 367.575714,258.931488 
z"/>
<path fill="#2C0202" opacity="1.000000" stroke="none" 
	d="
M326.934082,273.088654 
	C326.897736,272.316864 326.885956,271.933197 327.340149,271.177551 
	C328.143890,268.647949 328.481628,266.490356 328.819336,264.332764 
	C328.578217,264.276947 328.429688,264.128998 328.333801,263.741821 
	C328.574249,263.465363 328.854645,263.335968 329.588074,263.109192 
	C329.776550,267.007965 329.511993,271.004120 329.225433,275.395844 
	C328.455170,275.019867 327.706909,274.248322 326.934082,273.088654 
z"/>
<path fill="#2C0202" opacity="1.000000" stroke="none" 
	d="
M310.985352,257.414185 
	C312.161194,258.608032 313.324341,260.210907 314.759399,262.020264 
	C314.763611,262.922516 314.495880,263.618286 314.228149,264.314056 
	C313.308197,263.736481 311.891907,263.351013 311.577606,262.539032 
	C311.022247,261.104004 311.137878,259.409271 310.985352,257.414185 
z"/>
<path fill="#2C0202" opacity="1.000000" stroke="none" 
	d="
M317.070312,271.432373 
	C318.843079,271.557312 320.680725,272.020813 322.764893,272.735565 
	C321.052643,272.581543 319.093933,272.176270 317.070312,271.432373 
z"/>
<path fill="#190202" opacity="1.000000" stroke="none" 
	d="
M371.274353,241.310486 
	C372.708527,240.635345 374.406189,240.230621 376.490540,239.787857 
	C376.147461,243.422058 373.606232,241.812073 371.274353,241.310486 
z"/>
<path fill="#F5F5F5" opacity="1.000000" stroke="none" 
	d="
M244.415131,245.813934 
	C245.280441,245.336929 246.561478,244.761536 247.791367,244.443771 
	C246.770432,245.039444 245.800644,245.377502 244.415131,245.813934 
z"/>
<path fill="#F5F5F5" opacity="1.000000" stroke="none" 
	d="
M236.710098,216.171265 
	C236.021988,216.790741 235.041916,217.391434 233.930099,217.686768 
	C234.671616,216.971756 235.544861,216.562119 236.710098,216.171265 
z"/>
<path fill="#F5F5F5" opacity="1.000000" stroke="none" 
	d="
M255.460449,221.499054 
	C256.320648,222.017685 256.650787,222.640579 256.992188,223.478973 
	C256.691895,223.742935 256.380371,223.791367 255.603302,223.757141 
	C254.757233,222.986420 254.376755,222.298370 253.978210,221.369003 
	C254.283554,221.286240 254.606949,221.444794 255.460449,221.499054 
z"/>
<path fill="#2C0202" opacity="1.000000" stroke="none" 
	d="
M368.829315,245.981033 
	C366.864380,246.182175 364.872314,246.110275 362.453735,245.986298 
	C363.769409,245.607651 365.511597,245.281082 367.661804,244.933502 
	C368.313904,245.177673 368.558044,245.442841 368.829315,245.981033 
z"/>
<path fill="#2C0202" opacity="1.000000" stroke="none" 
	d="
M341.045593,272.905396 
	C340.547913,272.540741 340.308258,272.036102 340.081024,271.243225 
	C340.496857,271.558441 340.900238,272.161926 341.045593,272.905396 
z"/>
<path fill="#F5F5F5" opacity="1.000000" stroke="none" 
	d="
M256.719055,216.125275 
	C256.797546,216.714005 256.593536,217.251755 256.192078,217.895538 
	C256.141998,217.359161 256.289307,216.716721 256.719055,216.125275 
z"/>
<path fill="#F5F5F5" opacity="1.000000" stroke="none" 
	d="
M227.307571,241.822220 
	C227.272034,241.436661 227.567230,240.945129 227.862427,240.453583 
	C228.204636,240.874802 228.546875,241.296021 228.883026,242.031113 
	C228.464066,242.135406 228.051178,241.925812 227.307571,241.822220 
z"/>
<path fill="#2C0202" opacity="1.000000" stroke="none" 
	d="
M313.516449,242.939209 
	C313.451508,243.304901 313.081177,243.713974 312.423889,244.211517 
	C312.494995,243.860870 312.853027,243.421707 313.516449,242.939209 
z"/>
<path fill="#190202" opacity="1.000000" stroke="none" 
	d="
M362.093903,216.817352 
	C362.023590,216.598648 362.219879,216.303864 362.675537,215.920395 
	C362.743439,216.134903 362.551971,216.438080 362.093903,216.817352 
z"/>
<path fill="#190202" opacity="1.000000" stroke="none" 
	d="
M345.437622,183.795837 
	C345.295593,183.629211 345.348450,183.282059 345.612000,182.760803 
	C345.759308,182.929550 345.695892,183.272430 345.437622,183.795837 
z"/>
<path fill="#190202" opacity="1.000000" stroke="none" 
	d="
M344.085632,270.229340 
	C344.269043,270.184662 344.539337,270.354523 344.837891,270.781281 
	C344.571472,270.914185 344.340271,270.716064 344.085632,270.229340 
z"/>
<path fill="#190202" opacity="1.000000" stroke="none" 
	d="
M364.153870,214.892273 
	C364.112274,214.699814 364.312469,214.430511 364.763977,214.099182 
	C364.808746,214.296585 364.602203,214.556015 364.153870,214.892273 
z"/>
<path fill="#F5F5F5" opacity="1.000000" stroke="none" 
	d="
M254.618439,246.896606 
	C254.570084,246.645538 254.786819,246.473373 255.391525,246.153351 
	C255.480850,246.328812 255.182190,246.652145 254.618439,246.896606 
z"/>
<path fill="#190202" opacity="1.000000" stroke="none" 
	d="
M365.876099,219.155487 
	C365.952728,219.378677 365.771667,219.680222 365.329651,220.052811 
	C365.251953,219.827209 365.435181,219.530533 365.876099,219.155487 
z"/>
<path fill="#190202" opacity="1.000000" stroke="none" 
	d="
M321.529541,262.106628 
	C321.779724,262.329254 321.692474,262.577911 321.210266,262.777466 
	C321.066528,262.557343 321.192108,262.358795 321.529541,262.106628 
z"/>
<path fill="#2C0202" opacity="1.000000" stroke="none" 
	d="
M316.123810,261.848755 
	C316.056183,261.637054 316.250488,261.349335 316.694397,260.966980 
	C316.757904,261.172485 316.571838,261.472626 316.123810,261.848755 
z"/>
<path fill="#2C0202" opacity="1.000000" stroke="none" 
	d="
M314.837097,242.525955 
	C314.790588,242.747818 314.616241,242.793640 314.171509,242.827484 
	C313.901123,242.815536 313.910400,242.357803 313.936890,242.129242 
	C314.242828,241.999283 314.491455,242.149033 314.837097,242.525955 
z"/>
<path fill="#2C0202" opacity="1.000000" stroke="none" 
	d="
M310.925598,255.076660 
	C311.078644,255.207245 311.045135,255.375580 310.890686,255.771179 
	C310.667633,255.788300 310.543457,255.584534 310.479340,255.363373 
	C310.463837,255.309967 310.647186,255.198944 310.925598,255.076660 
z"/>
<path fill="#111111" opacity="1.000000" stroke="none" 
	d="
M240.967255,228.846939 
	C235.763016,228.922256 231.300766,229.781021 229.021118,233.455536 
	C224.769806,231.480774 220.672104,229.707855 216.709579,227.671844 
	C215.148590,226.869766 213.889328,225.480469 212.492676,224.358582 
	C214.544662,223.964066 216.593445,223.315689 218.650101,223.289612 
	C219.580307,223.277832 220.526199,224.503098 221.533173,225.215393 
	C223.693710,223.916214 225.788818,222.656387 227.345978,221.720032 
	C229.933334,223.466812 232.274460,225.047379 234.229416,226.367203 
	C236.607666,225.012039 238.438904,223.123123 240.225098,223.164780 
	C242.456406,223.216812 246.311920,224.556198 246.550095,225.868866 
	C247.270813,229.841171 243.490952,228.373611 240.967255,228.846939 
z"/>
<path fill="#111111" opacity="1.000000" stroke="none" 
	d="
M204.773926,239.113525 
	C203.689224,239.661972 202.973190,240.031265 202.146484,240.457626 
	C202.559830,236.566940 202.949615,232.898117 203.269760,229.884674 
	C208.022400,231.908676 212.881119,233.918594 217.672150,236.078659 
	C218.437775,236.423843 218.900085,237.441788 219.502625,238.148697 
	C218.687637,238.809372 217.863251,240.031891 217.059540,240.018433 
	C215.152344,239.986526 212.577362,240.008789 211.490692,238.858322 
	C209.012131,236.234207 207.225159,237.530869 204.773926,239.113525 
z"/>
<path fill="#111111" opacity="1.000000" stroke="none" 
	d="
M246.664246,236.551804 
	C246.007034,237.740326 245.571060,239.156952 244.911697,239.269928 
	C242.545715,239.675339 240.104218,239.639877 237.691254,239.771088 
	C237.828003,238.313370 237.427505,236.388016 238.208344,235.490906 
	C240.097366,233.320587 245.165909,233.951523 246.664246,236.551804 
z"/>
<path fill="#000000" opacity="1.000000" stroke="none" 
	d="
M182.198761,218.532181 
	C182.000748,218.612305 181.578415,218.332382 181.299973,217.781281 
	C181.620728,217.730774 181.797577,217.951447 182.198761,218.532181 
z"/>
<path fill="#000000" opacity="1.000000" stroke="none" 
	d="
M229.107056,220.879074 
	C229.115219,220.968765 228.918320,221.243362 228.592087,221.458252 
	C228.609161,221.287033 228.755585,221.175491 229.107056,220.879074 
z"/>
<path fill="#2C0202" opacity="1.000000" stroke="none" 
	d="
M318.425049,235.594589 
	C320.331482,236.531540 321.974518,237.665314 323.972076,239.043716 
	C321.381317,239.545807 319.511017,239.908264 316.303467,240.529892 
	C317.050964,238.623688 317.606293,237.207535 318.425049,235.594589 
z"/>
<path fill="#2C0202" opacity="1.000000" stroke="none" 
	d="
M342.221863,252.498901 
	C341.988251,253.238953 341.543060,253.755585 341.049347,254.620422 
	C339.816467,254.474213 338.632141,253.979797 337.248169,253.232056 
	C337.962158,252.765930 338.875793,252.553177 340.034210,252.067261 
	C340.856079,251.954559 341.433197,252.115005 342.221863,252.498901 
z"/>
<path fill="#2C0202" opacity="1.000000" stroke="none" 
	d="
M336.809021,252.721863 
	C336.519775,252.959534 336.037872,252.961975 335.193359,252.978607 
	C334.521362,252.742477 334.212006,252.492157 333.902649,252.241852 
	C334.807220,252.323441 335.711823,252.405029 336.809021,252.721863 
z"/>
<path fill="#2C0202" opacity="1.000000" stroke="none" 
	d="
M349.891235,247.071259 
	C349.102295,247.399597 347.934052,247.681595 346.403870,247.896103 
	C347.198608,247.560699 348.355255,247.292816 349.891235,247.071259 
z"/>
<path fill="#2C0202" opacity="1.000000" stroke="none" 
	d="
M340.182922,248.172241 
	C339.925049,248.489838 339.317047,248.758057 338.371948,248.985794 
	C338.634125,248.671143 339.233459,248.397003 340.182922,248.172241 
z"/>
<path fill="#2C0202" opacity="1.000000" stroke="none" 
	d="
M338.948364,268.793518 
	C338.728668,268.892517 338.524048,268.717468 338.374207,268.251892 
	C338.592712,268.176788 338.770813,268.362793 338.948364,268.793518 
z"/>
<path fill="#000000" opacity="1.000000" stroke="none" 
	d="
M364.471436,243.454117 
	C364.523651,243.424118 364.419189,243.484116 364.471436,243.454117 
z"/>
<path fill="#2C0202" opacity="1.000000" stroke="none" 
	d="
M339.139496,251.261627 
	C339.330688,251.155426 339.652710,251.266907 340.081238,251.618622 
	C339.881897,251.732330 339.576141,251.605804 339.139496,251.261627 
z"/>
<path fill="#2C0202" opacity="1.000000" stroke="none" 
	d="
M355.875916,246.650757 
	C355.975464,246.780975 355.503265,246.938126 355.258606,246.892960 
	C355.177185,246.477783 355.431305,246.368683 355.875916,246.650757 
z"/>
<path fill="#190202" opacity="1.000000" stroke="none" 
	d="
M328.371307,264.339355 
	C328.481628,266.490356 328.143890,268.647949 327.414551,270.897003 
	C327.323059,268.774292 327.623169,266.560150 328.371307,264.339355 
z"/>
</svg>